# xmcd
#
# Track frame offsets: 
#        150
#        21162
#        42012
#        64762
#        85962
#        102000
#        125387
#        147575
#        166287
#        186937
#
# Disc length: 2794 seconds
#
# Revision: 2
# Processed by: cddbd v1.5.2PL0 Copyright (c) Steve Scherf et al.
# Submitted via: ExactAudioCopy v0.95a5
#
DISCID=830ae80a
DTITLE=吴奇隆  - 暮然回首 
DYEAR=1993
DGENRE=Pop
TTITLE0=暮然回首
TTITLE1=为爱流过泪
TTITLE2=美丽的错
TTITLE3=谢谢你的祝福
TTITLE4=死心不息("暮然回首"粤语版)
TTITLE5=流星
TTITLE6=迷失
TTITLE7=男人的眼泪
TTITLE8=我相信
TTITLE9=一天一天等下去("烟火"粤语版)
EXTD=
EXTT0=
EXTT1=
EXTT2=
EXTT3=
EXTT4=
EXTT5=
EXTT6=
EXTT7=
EXTT8=
EXTT9=
PLAYORDER=
